<svg width="21" height="21" viewBox="0 0 21 21" fill="none" xmlns="http://www.w3.org/2000/svg">
<path d="M1 1H3.11111L3.63889 4.16667M3.63889 4.16667L5.22222 13.6667H16.8333L20 4.16667H3.63889Z" stroke="#C4C0C1" stroke-width="2" stroke-linecap="round" stroke-linejoin="round"/>
<path d="M6.27772 20C6.86069 20 7.33328 19.5274 7.33328 18.9445C7.33328 18.3615 6.86069 17.8889 6.27772 17.8889C5.69476 17.8889 5.22217 18.3615 5.22217 18.9445C5.22217 19.5274 5.69476 20 6.27772 20Z" stroke="#C4C0C1" stroke-width="2" stroke-linecap="round" stroke-linejoin="round"/>
<path d="M15.7777 20C16.3607 20 16.8333 19.5274 16.8333 18.9445C16.8333 18.3615 16.3607 17.8889 15.7777 17.8889C15.1948 17.8889 14.7222 18.3615 14.7222 18.9445C14.7222 19.5274 15.1948 20 15.7777 20Z" stroke="#C4C0C1" stroke-width="2" stroke-linecap="round" stroke-linejoin="round"/>
</svg>
