<svg width="19" height="19" viewBox="0 0 19 19" fill="none" xmlns="http://www.w3.org/2000/svg">
<path d="M10.4625 17.9H4.29684C3.10896 17.9 2.51396 17.9 2.06027 17.6684C1.66045 17.4647 1.33538 17.1396 1.13165 16.7398C0.900024 16.285 0.900024 15.69 0.900024 14.5V4.30002C0.900024 3.11002 0.900024 2.51502 1.13165 2.06027C1.33565 1.65971 1.65971 1.33565 2.06027 1.13165C2.51502 0.900024 3.11002 0.900024 4.30002 0.900024H14.5C15.69 0.900024 16.285 0.900024 16.7387 1.13165C17.1393 1.33565 17.4644 1.65971 17.6684 2.06027C17.9 2.51396 17.9 3.10896 17.9 4.29684V10.4625M10.4625 17.9C10.7664 17.8968 10.9576 17.8851 11.1415 17.8416C11.3596 17.7885 11.5643 17.7035 11.7556 17.5866C11.9702 17.4548 12.154 17.2721 12.5206 16.9045L16.9045 12.5216C17.2721 12.154 17.4548 11.9691 17.5866 11.7556C17.7035 11.5636 17.7885 11.3586 17.8416 11.1404C17.8841 10.9576 17.8968 10.7664 17.9 10.4625M10.4625 17.9V12.1625C10.4625 11.5675 10.4625 11.27 10.5783 11.0426C10.6802 10.8427 10.8427 10.6802 11.0426 10.5783C11.27 10.4625 11.5675 10.4625 12.1625 10.4625H17.9" stroke="#C4C0C1" stroke-width="1.8" stroke-linecap="round" stroke-linejoin="round"/>
</svg>
