<svg width="19" height="19" viewBox="0 0 19 19" fill="none" xmlns="http://www.w3.org/2000/svg">
<path d="M16.8375 16.8375L13.65 13.65M7.27502 17.9H4.29684C3.10896 17.9 2.51396 17.9 2.06027 17.6684C1.66045 17.4647 1.33538 17.1396 1.13165 16.7398C0.900024 16.285 0.900024 15.69 0.900024 14.5V4.30002C0.900024 3.11002 0.900024 2.51502 1.13165 2.06027C1.33565 1.65971 1.65971 1.33565 2.06027 1.13165C2.51502 0.900024 3.11002 0.900024 4.30002 0.900024H14.5C15.69 0.900024 16.285 0.900024 16.7387 1.13165C17.1393 1.33565 17.4644 1.65971 17.6684 2.06027C17.9 2.51396 17.9 3.10896 17.9 4.29684V7.27502M10.9938 14.7125C10.0075 14.7125 9.06162 14.3207 8.36422 13.6233C7.66682 12.9259 7.27502 11.98 7.27502 10.9938C7.27502 10.0075 7.66682 9.06162 8.36422 8.36422C9.06162 7.66682 10.0075 7.27502 10.9938 7.27502C11.98 7.27502 12.9259 7.66682 13.6233 8.36422C14.3207 9.06162 14.7125 10.0075 14.7125 10.9938C14.7125 11.98 14.3207 12.9259 13.6233 13.6233C12.9259 14.3207 11.98 14.7125 10.9938 14.7125Z" stroke="#C4C0C1" stroke-width="1.8" stroke-linecap="round" stroke-linejoin="round"/>
</svg>
