<svg width="21" height="21" viewBox="0 0 21 21" fill="none" xmlns="http://www.w3.org/2000/svg">
<path d="M7.23336 3.01114H4.2778C3.09558 3.01114 2.50447 3.01114 2.05269 3.24125C1.65548 3.44364 1.33253 3.76659 1.13014 4.1638C0.900024 4.61558 0.900024 5.20669 0.900024 6.38891V16.5222C0.900024 17.7045 0.900024 18.2956 1.13014 18.7474C1.33253 19.1446 1.65548 19.4675 2.05269 19.6699C2.50341 19.9 3.09452 19.9 4.27464 19.9H14.4143C15.5944 19.9 16.1845 19.9 16.6352 19.6699C17.0331 19.4672 17.3561 19.1442 17.5588 18.7474C17.7889 18.2956 17.7889 17.7055 17.7889 16.5254V13.5667M13.5667 4.06669L7.23336 10.4V13.5667H10.4L16.7334 7.23336M13.5667 4.06669L16.7334 0.900024L19.9 4.06669L16.7334 7.23336M13.5667 4.06669L16.7334 7.23336" stroke="#C4C0C1" stroke-width="1.8" stroke-linecap="round" stroke-linejoin="round"/>
</svg>
