<svg width="21" height="18" viewBox="0 0 21 18" fill="none" xmlns="http://www.w3.org/2000/svg">
<path d="M10.605 15.2534C10.5452 15.3093 10.4529 15.3115 10.3905 15.2585L10.3845 15.2534C5.397 11.0256 2.1 8.22997 2.1 5.3951C2.1 3.43324 3.675 1.96185 5.775 1.96185C7.29642 1.96185 9.41275 3.0278 10.1212 4.26502C10.2001 4.40298 10.341 4.5 10.5 4.5C10.659 4.5 10.7999 4.40298 10.8788 4.26502C11.5872 3.0278 13.7036 1.96185 15.225 1.96185C17.325 1.96185 18.9 3.43324 18.9 5.3951C18.9 8.22997 15.603 11.0256 10.605 15.2534ZM15.225 0C13.7859 0 12.3924 0.492995 11.3062 1.31119C10.8384 1.66356 10.1616 1.66356 9.69385 1.31119C8.60765 0.492995 7.21413 0 5.775 0C2.541 0 0 2.36403 0 5.3951C0 9.09319 3.57 12.1243 8.9775 16.7052L9.85215 17.449C10.2256 17.7667 10.7744 17.7667 11.1479 17.449L12.0225 16.7052C17.43 12.1243 21 9.09319 21 5.3951C21 2.36403 18.459 0 15.225 0Z" fill="#C4C0C1"/>
</svg>
