<svg width="18" height="18" viewBox="0 0 18 18" fill="none" xmlns="http://www.w3.org/2000/svg">
<path d="M8.16991 16.3389C9.76765 16.3389 11.2638 15.8712 12.5218 15.0724C12.9363 14.8092 13.4823 14.8229 13.8444 15.1545L16.4045 17.4991C16.7104 17.7792 17.1826 17.7688 17.4757 17.4754C17.7688 17.1822 17.7786 16.7102 17.4979 16.405L15.1491 13.8514C14.8163 13.4895 14.8019 12.9426 15.0651 12.5272C15.8869 11.2302 16.3287 9.72155 16.3302 8.17427C16.3302 3.664 12.6682 0 8.1603 0C6.16022 0 4.32854 0.719389 2.90956 1.91374C1.13038 3.41128 0 5.65552 0 8.16465C0 12.6749 3.66204 16.3389 8.16991 16.3389ZM8.16991 1.91374C11.6109 1.91374 14.4175 4.72184 14.4175 8.16465C14.4175 11.6075 11.6109 14.4156 8.16991 14.4156C4.72893 14.4156 1.92233 11.6075 1.92233 8.16465C1.92233 6.21019 2.82684 4.46027 4.23843 3.31255C5.31336 2.43854 6.68236 1.91374 8.16991 1.91374Z" fill="#C4C0C1"/>
</svg>
