<svg width="15" height="15" viewBox="0 0 15 15" fill="none" xmlns="http://www.w3.org/2000/svg">
<path d="M3.27377 8.48252L7.99316 13.3297C8.18578 13.5275 8.27824 13.7583 8.27054 14.0221C8.26284 14.2859 8.16235 14.5167 7.96908 14.7146C7.77645 14.8959 7.55172 14.9909 7.29488 14.9995C7.03804 15.008 6.81331 14.9131 6.62068 14.7146L0.263959 8.18575C0.167645 8.08683 0.0992625 7.97967 0.0588107 7.86426C0.0183588 7.74885 -0.00122492 7.6252 5.92705e-05 7.4933C0.00134346 7.36141 0.0215691 7.23776 0.0607368 7.12235C0.0999045 7.00694 0.167967 6.89978 0.264923 6.80085L6.62164 0.272034C6.79822 0.0906777 7.0191 0 7.28429 0C7.54947 0 7.77805 0.0906777 7.97004 0.272034C8.16267 0.469877 8.25898 0.70498 8.25898 0.977344C8.25898 1.24971 8.16267 1.48448 7.97004 1.68167L3.27377 6.50409H14.0369C14.3097 6.50409 14.5387 6.59905 14.7236 6.78898C14.9085 6.97891 15.0006 7.21369 15 7.4933C14.9994 7.77292 14.9069 8.00803 14.7226 8.19861C14.5383 8.3892 14.3097 8.48384 14.0369 8.48252H3.27377Z" fill="#F6909B"/>
</svg>
