<svg width="18" height="20" viewBox="0 0 18 20" fill="none" xmlns="http://www.w3.org/2000/svg">
<path d="M7.45993 18.1001C7.61597 18.3737 7.8404 18.6009 8.11065 18.7589C8.3809 18.9168 8.68746 19 8.99952 19C9.31157 19 9.61813 18.9168 9.88838 18.7589C10.1586 18.6009 10.3831 18.3737 10.5391 18.1001M1.23224 12.9935C1.11612 13.1223 1.03949 13.2826 1.01167 13.4547C0.983845 13.6269 1.00603 13.8035 1.07554 13.9631C1.14504 14.1227 1.25885 14.2585 1.40314 14.3538C1.54743 14.4491 1.71597 14.4999 1.88826 14.5001H16.1108C16.283 14.5001 16.4516 14.4495 16.596 14.3544C16.7404 14.2592 16.8543 14.1236 16.924 13.9641C16.9937 13.8046 17.0161 13.628 16.9885 13.4559C16.9609 13.2837 16.8845 13.1234 16.7686 12.9944C15.5863 11.7604 14.333 10.4491 14.333 6.40002C14.333 4.96785 13.771 3.59433 12.7708 2.58163C11.7706 1.56893 10.414 1 8.99952 1C7.585 1 6.22842 1.56893 5.2282 2.58163C4.22799 3.59433 3.66607 4.96785 3.66607 6.40002C3.66607 10.4491 2.41182 11.7604 1.23224 12.9935Z" stroke="#C4C0C1" stroke-width="2" stroke-linecap="round" stroke-linejoin="round"/>
</svg>
