<svg width="19" height="20" viewBox="0 0 19 20" fill="none" xmlns="http://www.w3.org/2000/svg">
<path d="M7.46562 18.0251C7.62361 18.2987 7.85084 18.5259 8.12446 18.6839C8.39809 18.8418 8.70847 18.925 9.02443 18.925C9.34038 18.925 9.65076 18.8418 9.92439 18.6839C10.198 18.5259 10.4252 18.2987 10.5832 18.0251M8.73643 0.933105C7.35615 1.00683 6.05669 1.60703 5.10567 2.61012C4.15466 3.6132 3.62451 4.94278 3.6244 6.32503C3.6244 10.3741 2.3545 11.6855 1.16019 12.9185C1.04262 13.0473 0.96503 13.2076 0.936861 13.3797C0.908692 13.5519 0.931159 13.7285 1.00153 13.8881C1.0719 14.0477 1.18713 14.1835 1.33322 14.2788C1.47931 14.3741 1.64996 14.4249 1.8244 14.4251H16.2245C16.3989 14.4251 16.5696 14.3745 16.7157 14.2794C16.8619 14.1842 16.9773 14.0486 17.0479 13.8891C17.1184 13.7296 17.1411 13.553 17.1132 13.3809C17.0852 13.2087 17.0078 13.0484 16.8905 12.9194C16.1489 12.1544 15.3803 11.3615 14.9015 9.90615" stroke="#C4C0C1" stroke-width="1.85" stroke-linecap="round" stroke-linejoin="round"/>
<path d="M14.4244 6.32503C15.9156 6.32503 17.1244 5.11619 17.1244 3.62501C17.1244 2.13384 15.9156 0.925003 14.4244 0.925003C12.9332 0.925003 11.7244 2.13384 11.7244 3.62501C11.7244 5.11619 12.9332 6.32503 14.4244 6.32503Z" fill="#F6909B" stroke="#F6909B" stroke-width="1.85" stroke-linecap="round" stroke-linejoin="round"/>
</svg>
