<svg width="6" height="9" viewBox="0 0 6 9" fill="none" xmlns="http://www.w3.org/2000/svg">
<path d="M0.266469 0.236782C0.181999 0.311352 0.114984 0.399926 0.0692601 0.497434C0.0235359 0.594943 0 0.699471 0 0.805036C0 0.910601 0.0235359 1.01513 0.0692601 1.11264C0.114984 1.21015 0.181999 1.29872 0.266469 1.37329L3.80184 4.5007L0.266469 7.62811C0.0960988 7.77882 0.000385821 7.98323 0.000385821 8.19637C0.000385821 8.4095 0.0960988 8.61391 0.266469 8.76462C0.436838 8.91533 0.667909 9 0.908848 9C1.14979 9 1.38086 8.91533 1.55123 8.76462L5.73353 5.06493C5.818 4.99036 5.88502 4.90178 5.93074 4.80427C5.97647 4.70677 6 4.60224 6 4.49667C6 4.39111 5.97647 4.28658 5.93074 4.18907C5.88502 4.09156 5.818 4.00299 5.73353 3.92842L1.55123 0.228722C1.20498 -0.0775711 0.621828 -0.0775709 0.266469 0.236782Z" fill="#F6909B"/>
</svg>
