<svg width="17" height="17" viewBox="0 0 17 17" fill="none" xmlns="http://www.w3.org/2000/svg">
<path d="M8.325 0C3.725 0 0 3.73333 0 8.33333C0 12.9333 3.725 16.6667 8.325 16.6667C12.9333 16.6667 16.6667 12.9333 16.6667 8.33333C16.6667 3.73333 12.9333 0 8.325 0ZM8.33333 15C4.65 15 1.66667 12.0167 1.66667 8.33333C1.66667 4.65 4.65 1.66667 8.33333 1.66667C12.0167 1.66667 15 4.65 15 8.33333C15 12.0167 12.0167 15 8.33333 15ZM8.15 4.16667H8.1C7.76667 4.16667 7.5 4.43333 7.5 4.76667V8.7C7.5 8.99167 7.65 9.26667 7.90833 9.41667L11.3667 11.4917C11.65 11.6583 12.0167 11.575 12.1833 11.2917C12.2252 11.2242 12.253 11.149 12.2652 11.0705C12.2774 10.9921 12.2736 10.912 12.2542 10.835C12.2347 10.758 12.2 10.6857 12.152 10.6224C12.1041 10.5592 12.0439 10.5062 11.975 10.4667L8.75 8.55V4.76667C8.75 4.43333 8.48333 4.16667 8.15 4.16667Z" fill="#F6909B"/>
</svg>
