<svg width="20" height="18" viewBox="0 0 20 18" fill="none" xmlns="http://www.w3.org/2000/svg">
<path d="M10.1 15.2534C10.0437 15.3086 9.95429 15.3107 9.89545 15.2583L9.89 15.2534C5.14 11.0256 2 8.22997 2 5.3951C2 3.43324 3.5 1.96185 5.5 1.96185C6.95245 1.96185 8.97421 3.03293 9.64403 4.27394C9.71572 4.40676 9.84907 4.5 10 4.5C10.1509 4.5 10.2843 4.40676 10.356 4.27394C11.0258 3.03293 13.0475 1.96185 14.5 1.96185C16.5 1.96185 18 3.43324 18 5.3951C18 8.22997 14.86 11.0256 10.1 15.2534ZM14.5 0C13.158 0 11.8577 0.47263 10.8329 1.26038C10.3532 1.62914 9.64677 1.62914 9.16708 1.26038C8.14234 0.472631 6.84199 0 5.5 0C2.42 0 0 2.36403 0 5.3951C0 9.09319 3.4 12.1243 8.55 16.7052L9.33393 17.4052C9.71335 17.744 10.2867 17.744 10.6661 17.4052L11.45 16.7052C16.6 12.1243 20 9.09319 20 5.3951C20 2.36403 17.58 0 14.5 0Z" fill="#F6909B"/>
</svg>
