<svg width="27" height="30" viewBox="0 0 27 30" fill="none" xmlns="http://www.w3.org/2000/svg">
<path d="M18.3657 15.9055C19.2231 16.8222 19.2231 18.3735 18.3657 19.3137L16.8009 21.0296L13.7977 24.3228C13.7184 24.4097 13.5815 24.4097 13.5022 24.3228L8.9342 19.3137C8.07679 18.3735 8.07679 16.8222 8.9342 15.9055C9.81304 14.9183 11.2063 14.9183 12.0852 15.9055L13.5031 17.4391C13.5823 17.5247 13.7176 17.5247 13.7968 17.4391L15.2147 15.9055C16.0936 14.9183 17.4869 14.9183 18.3657 15.9055Z" fill="#C4C0C1"/>
<path d="M7.21312 4.10656H5.97049C4.23082 4.10656 3.36098 4.10656 2.69618 4.44517C2.11167 4.743 1.63645 5.21823 1.33861 5.80274C1 6.46754 1 7.33738 1 9.07705V10.3197M7.21312 4.10656H19.6393M7.21312 4.10656V1M1 10.3197V23.9885C1 25.7282 1 26.598 1.33861 27.2628C1.63645 27.8474 2.11167 28.3226 2.69618 28.6204C3.35943 28.959 4.22927 28.959 5.96583 28.959H20.8866C22.6232 28.959 23.4915 28.959 24.1547 28.6204C24.7403 28.3222 25.2156 27.8469 25.5139 27.2628C25.8525 26.598 25.8525 25.7313 25.8525 23.9947V10.3197M1 10.3197H25.8525M19.6393 4.10656H20.882C22.6216 4.10656 23.4915 4.10656 24.1547 4.44517C24.7403 4.7434 25.2156 5.21715 25.5139 5.80274C25.8525 6.46599 25.8525 7.33583 25.8525 9.07239V10.3197M19.6393 4.10656V1" stroke="#C4C0C1" stroke-width="2" stroke-linecap="round" stroke-linejoin="round"/>
</svg>
