<svg width="30" height="28" viewBox="0 0 30 28" fill="none" xmlns="http://www.w3.org/2000/svg">
<path fill-rule="evenodd" clip-rule="evenodd" d="M26.8724 12.9753H23.1927C21.2477 12.9753 19.8039 14.4217 19.8039 16.0485C19.8039 17.6753 21.2477 19.1218 23.1913 19.1218H26.9038C27.1852 19.104 27.3067 18.9141 27.3163 18.7994V13.2976C27.3067 13.1829 27.1852 12.993 26.9038 12.9766L26.8724 12.9753ZM26.7713 10.9264C26.8624 10.9255 26.9489 10.9274 27.0308 10.9319C28.2191 11.0043 29.2722 11.9017 29.361 13.1556C29.3665 13.2375 29.3665 13.3263 29.3665 13.4083V18.6888C29.3665 18.7707 29.3665 18.8595 29.361 18.9415C29.2722 20.1953 28.2191 21.0927 27.0295 21.1665C26.9484 21.1701 26.8619 21.1715 26.7699 21.1706H23.1941C20.2642 21.1706 17.7565 18.9469 17.7565 16.0485C17.7565 13.1501 20.2642 10.9264 23.1927 10.9264H26.7713Z" fill="#C4C0C1"/>
<path d="M24.2445 16.0485C24.2445 16.4108 24.1006 16.7582 23.8444 17.0143C23.5883 17.2705 23.2408 17.4144 22.8786 17.4144C22.5163 17.4144 22.1689 17.2705 21.9128 17.0143C21.6566 16.7582 21.5127 16.4108 21.5127 16.0485C21.5127 15.6862 21.6566 15.3388 21.9128 15.0827C22.1689 14.8265 22.5163 14.6826 22.8786 14.6826C23.2408 14.6826 23.5883 14.8265 23.8444 15.0827C24.1006 15.3388 24.2445 15.6862 24.2445 16.0485" fill="#C4C0C1"/>
<path fill-rule="evenodd" clip-rule="evenodd" d="M26.7713 10.9264C26.8624 10.9255 26.9489 10.9274 27.0309 10.9319C27.0595 10.9336 27.088 10.9357 27.1164 10.9383C27.4904 10.9727 27.8815 10.6959 27.8413 10.3225C27.6477 8.52301 27.2003 7.09773 26.1007 5.99697C25.0776 4.97528 23.7814 4.52181 22.1806 4.306L22.1767 4.30553C22.1416 4.30136 22.1082 4.28836 22.0795 4.26776L16.9766 0.884461C16.0912 0.307293 15.0572 0 14.0003 0C12.9435 0 11.9094 0.307293 11.0241 0.884461L5.92247 4.26776C5.89288 4.28838 5.85866 4.3014 5.82284 4.30567L5.82003 4.306C4.21922 4.52181 2.92299 4.97528 1.89995 5.99697C0.878264 7.02001 0.42479 8.31624 0.20898 9.91705C0 11.4742 0 13.4615 0 15.972V16.125C0 18.6355 0 20.6242 0.20898 22.18C0.42479 23.7808 0.878264 25.077 1.89995 26.1001C2.92299 27.1217 4.21922 27.5752 5.82003 27.791C7.37714 28 9.3645 28 11.875 28H16.1256C18.6361 28 20.6249 28 22.1806 27.791C23.7814 27.5752 25.0776 27.1217 26.1007 26.1001C27.1995 25 27.6471 23.5759 27.8409 21.7773C27.8813 21.4029 27.4878 21.124 27.1129 21.1598C27.0852 21.1625 27.0574 21.1647 27.0295 21.1665C26.9484 21.1701 26.8619 21.1715 26.77 21.1706H26.2991C26.0394 21.1706 25.824 21.37 25.7948 21.6281C25.6207 23.1691 25.274 24.0296 24.6515 24.6509C24.0737 25.2286 23.2815 25.5756 21.9074 25.76C20.5047 25.9484 18.6539 25.9512 16.0491 25.9512H11.9515C9.34675 25.9512 7.49734 25.9484 6.09184 25.76C4.71913 25.5756 3.92692 25.2286 3.34915 24.6509C2.77138 24.0731 2.42444 23.2809 2.24005 21.9068C2.05156 20.504 2.04883 18.6533 2.04883 16.0485C2.04883 13.4438 2.05156 11.5944 2.24005 10.1889C2.42444 8.81615 2.77138 8.02394 3.34915 7.44617C3.92692 6.8684 4.71913 6.52147 6.09321 6.33707C7.49734 6.14858 9.34675 6.14585 11.9515 6.14585H16.0491C18.6539 6.14585 20.5047 6.14858 21.9088 6.33707C23.2815 6.52147 24.0737 6.8684 24.6515 7.44617C25.2739 8.06739 25.6207 8.92898 25.7948 10.469C25.824 10.727 26.0394 10.9264 26.2991 10.9264H26.7713ZM11.875 4.09702H16.1256C16.2341 4.09702 16.3416 4.09705 16.4482 4.09712C16.9446 4.09742 17.1404 3.45153 16.7267 3.17712L15.8443 2.59182C14.7516 1.8679 13.2491 1.8679 12.1564 2.59182L11.2772 3.1746C10.863 3.44913 11.0595 4.09661 11.5564 4.09676C11.6612 4.0968 11.767 4.09688 11.8736 4.09702" fill="#C4C0C1"/>
<path d="M6.48791 9.56055C6.21622 9.56055 5.95566 9.66848 5.76354 9.86059C5.57143 10.0527 5.4635 10.3133 5.4635 10.585C5.4635 10.8567 5.57143 11.1172 5.76354 11.3093C5.95566 11.5014 6.21622 11.6094 6.48791 11.6094H11.9515C12.2231 11.6094 12.4837 11.5014 12.6758 11.3093C12.8679 11.1172 12.9759 10.8567 12.9759 10.585C12.9759 10.3133 12.8679 10.0527 12.6758 9.86059C12.4837 9.66848 12.2231 9.56055 11.9515 9.56055H6.48791Z" fill="#C4C0C1"/>
<path d="M24.2445 16.0485C24.2445 16.4108 24.1006 16.7582 23.8444 17.0143C23.5883 17.2705 23.2408 17.4144 22.8786 17.4144C22.5163 17.4144 22.1689 17.2705 21.9128 17.0143C21.6566 16.7582 21.5127 16.4108 21.5127 16.0485C21.5127 15.6862 21.6566 15.3388 21.9128 15.0827C22.1689 14.8265 22.5163 14.6826 22.8786 14.6826C23.2408 14.6826 23.5883 14.8265 23.8444 15.0827C24.1006 15.3388 24.2445 15.6862 24.2445 16.0485" fill="#C4C0C1"/>
</svg>
