<svg width="17" height="17" viewBox="0 0 17 17" fill="none" xmlns="http://www.w3.org/2000/svg">
<path d="M15.75 12H0.75C0.551088 12 0.360322 12.079 0.21967 12.2197C0.0790176 12.3603 0 12.5511 0 12.75C0 12.9489 0.0790176 13.1397 0.21967 13.2803C0.360322 13.421 0.551088 13.5 0.75 13.5H15.75C15.9489 13.5 16.1397 13.421 16.2803 13.2803C16.421 13.1397 16.5 12.9489 16.5 12.75C16.5 12.5511 16.421 12.3603 16.2803 12.2197C16.1397 12.079 15.9489 12 15.75 12ZM15.75 15H0.75C0.551088 15 0.360322 15.079 0.21967 15.2197C0.0790176 15.3603 0 15.5511 0 15.75C0 15.9489 0.0790176 16.1397 0.21967 16.2803C0.360322 16.421 0.551088 16.5 0.75 16.5H15.75C15.9489 16.5 16.1397 16.421 16.2803 16.2803C16.421 16.1397 16.5 15.9489 16.5 15.75C16.5 15.5511 16.421 15.3603 16.2803 15.2197C16.1397 15.079 15.9489 15 15.75 15ZM3.75 4.5C3.60166 4.5 3.45666 4.54399 3.33332 4.6264C3.20999 4.70881 3.11386 4.82594 3.05709 4.96299C3.00032 5.10003 2.98547 5.25083 3.01441 5.39632C3.04335 5.5418 3.11478 5.67544 3.21967 5.78033C3.32456 5.88522 3.4582 5.95665 3.60368 5.98559C3.74917 6.01453 3.89997 5.99968 4.03701 5.94291C4.17406 5.88614 4.29119 5.79001 4.3736 5.66668C4.45601 5.54334 4.5 5.39834 4.5 5.25C4.5 5.05109 4.42098 4.86032 4.28033 4.71967C4.13968 4.57902 3.94891 4.5 3.75 4.5ZM14.25 0H2.25C1.65326 0 1.08097 0.237053 0.65901 0.65901C0.237053 1.08097 0 1.65326 0 2.25V8.25C0 8.84674 0.237053 9.41903 0.65901 9.84099C1.08097 10.2629 1.65326 10.5 2.25 10.5H14.25C14.8467 10.5 15.419 10.2629 15.841 9.84099C16.2629 9.41903 16.5 8.84674 16.5 8.25V2.25C16.5 1.65326 16.2629 1.08097 15.841 0.65901C15.419 0.237053 14.8467 0 14.25 0ZM15 8.25C15 8.44891 14.921 8.63968 14.7803 8.78033C14.6397 8.92098 14.4489 9 14.25 9H2.25C2.05109 9 1.86032 8.92098 1.71967 8.78033C1.57902 8.63968 1.5 8.44891 1.5 8.25V2.25C1.5 2.05109 1.57902 1.86032 1.71967 1.71967C1.86032 1.57902 2.05109 1.5 2.25 1.5H14.25C14.4489 1.5 14.6397 1.57902 14.7803 1.71967C14.921 1.86032 15 2.05109 15 2.25V8.25ZM8.25 3C7.80499 3 7.36998 3.13196 6.99997 3.37919C6.62996 3.62643 6.34157 3.97783 6.17127 4.38896C6.00097 4.8001 5.95642 5.2525 6.04323 5.68895C6.13005 6.12541 6.34434 6.52632 6.65901 6.84099C6.97368 7.15566 7.37459 7.36995 7.81105 7.45677C8.2475 7.54358 8.6999 7.49903 9.11104 7.32873C9.52217 7.15843 9.87357 6.87004 10.1208 6.50003C10.368 6.13002 10.5 5.69501 10.5 5.25C10.5 4.65326 10.2629 4.08097 9.84099 3.65901C9.41903 3.23705 8.84674 3 8.25 3ZM8.25 6C8.10166 6 7.95666 5.95601 7.83332 5.8736C7.70999 5.79119 7.61386 5.67406 7.55709 5.53701C7.50032 5.39997 7.48547 5.24917 7.51441 5.10368C7.54335 4.9582 7.61478 4.82456 7.71967 4.71967C7.82456 4.61478 7.9582 4.54335 8.10368 4.51441C8.24917 4.48547 8.39997 4.50032 8.53701 4.55709C8.67406 4.61386 8.79119 4.70999 8.8736 4.83332C8.95601 4.95666 9 5.10166 9 5.25C9 5.44891 8.92098 5.63968 8.78033 5.78033C8.63968 5.92098 8.44891 6 8.25 6ZM12.75 4.5C12.6017 4.5 12.4567 4.54399 12.3333 4.6264C12.21 4.70881 12.1139 4.82594 12.0571 4.96299C12.0003 5.10003 11.9855 5.25083 12.0144 5.39632C12.0434 5.5418 12.1148 5.67544 12.2197 5.78033C12.3246 5.88522 12.4582 5.95665 12.6037 5.98559C12.7492 6.01453 12.9 5.99968 13.037 5.94291C13.1741 5.88614 13.2912 5.79001 13.3736 5.66668C13.456 5.54334 13.5 5.39834 13.5 5.25C13.5 5.05109 13.421 4.86032 13.2803 4.71967C13.1397 4.57902 12.9489 4.5 12.75 4.5Z" fill="#72CF95"/>
</svg>
