<svg width="17" height="20" viewBox="0 0 17 20" fill="none" xmlns="http://www.w3.org/2000/svg">
<path d="M4.60714 2.03564H2.03571C1.69472 2.03564 1.3677 2.1711 1.12658 2.41222C0.885459 2.65334 0.75 2.98037 0.75 3.32136V17.4642C0.75 17.8052 0.885459 18.1322 1.12658 18.3734C1.3677 18.6145 1.69472 18.7499 2.03571 18.7499H14.8929C15.2339 18.7499 15.5609 18.6145 15.802 18.3734C16.0431 18.1322 16.1786 17.8052 16.1786 17.4642V3.32136C16.1786 2.98037 16.0431 2.65334 15.802 2.41222C15.5609 2.1711 15.2339 2.03564 14.8929 2.03564H12.3214" stroke="#F6909B" stroke-width="1.5" stroke-linecap="round" stroke-linejoin="round"/>
<path d="M7.17862 7.17857H13.6072M7.17862 11.0357H13.6072M7.17862 14.8929H13.6072M3.32147 7.17857H4.60719M3.32147 11.0357H4.60719M3.32147 14.8929H4.60719M5.8929 0.75H11.0358C11.3768 0.75 11.7038 0.885459 11.9449 1.12658C12.186 1.3677 12.3215 1.69472 12.3215 2.03571C12.3215 2.37671 12.186 2.70373 11.9449 2.94485C11.7038 3.18597 11.3768 3.32143 11.0358 3.32143H5.8929C5.55191 3.32143 5.22488 3.18597 4.98376 2.94485C4.74265 2.70373 4.60719 2.37671 4.60719 2.03571C4.60719 1.69472 4.74265 1.3677 4.98376 1.12658C5.22488 0.885459 5.55191 0.75 5.8929 0.75Z" stroke="#F6909B" stroke-width="1.5" stroke-linecap="round" stroke-linejoin="round"/>
</svg>
