<svg width="14" height="15" viewBox="0 0 14 15" fill="none" xmlns="http://www.w3.org/2000/svg">
<path d="M5.99992 9.2084H7.33325V10.6251H5.99992V9.2084ZM5.01992 4.27131C4.57992 4.73882 4.33325 5.36215 4.33325 6.0209H5.66659C5.66659 5.73757 5.77325 5.4684 5.95992 5.27006C6.33992 4.86631 6.99325 4.86631 7.37325 5.27006C7.51325 5.41852 7.60864 5.60778 7.64734 5.81388C7.68603 6.01998 7.6663 6.23364 7.59063 6.42781C7.51496 6.62198 7.38676 6.78793 7.22227 6.90463C7.05777 7.02134 6.86438 7.08355 6.66659 7.0834C6.29992 7.0834 5.99992 7.40215 5.99992 7.79173V8.50007H7.33325V8.4009C7.69992 8.28757 8.03992 8.07507 8.31325 7.77757C8.75325 7.31007 8.99992 6.68673 8.99992 6.02798C8.99992 5.36923 8.75992 4.7459 8.31325 4.2784C7.43325 3.3434 5.89325 3.3434 5.01325 4.2784L5.01992 4.27131Z" fill="#C4C0C1"/>
<path d="M6.66667 0C2.99333 0 0 3.18042 0 7.08333C0 8.585 0.453333 10.0513 1.28667 11.2625L0.12 13.0546C-0.02 13.2742 -0.0400001 13.5504 0.0799999 13.7842C0.193333 14.0179 0.42 14.1667 0.673333 14.1667H6.67333C10.3467 14.1667 13.34 10.9863 13.34 7.08333C13.34 3.18042 10.34 0 6.66667 0ZM6.66667 12.75H1.94L2.66667 11.6379C2.84 11.3758 2.82 11.0146 2.62667 10.7737C1.79557 9.74708 1.33899 8.43752 1.34 7.08333C1.34 3.95958 3.73333 1.41667 6.67333 1.41667C9.61333 1.41667 12.0067 3.95958 12.0067 7.08333C12.0067 10.2071 9.61333 12.75 6.67333 12.75H6.66667Z" fill="#C4C0C1"/>
</svg>
