<svg width="34" height="29" viewBox="0 0 34 29" fill="none" xmlns="http://www.w3.org/2000/svg">
<path d="M24.9028 27.3029C24.4528 26.8529 23.8423 26.6 23.2058 26.6H18.3999C16.743 26.6 15.3999 25.2569 15.3999 23.6V23.2C15.3999 21.5432 16.743 20.2 18.3999 20.2H23.5999C25.2568 20.2 26.5999 18.8569 26.5999 17.2V16.8C26.5999 15.1432 27.943 13.8 29.5999 13.8H29.9999C31.6568 13.8 32.9999 15.1431 32.9999 16.8V23.7716C32.9999 25.3337 31.7336 26.6 30.1715 26.6H29.994C29.3575 26.6 28.747 26.8529 28.297 27.3029C27.3597 28.2402 25.8401 28.2402 24.9028 27.3029Z" stroke="#C4C0C1" stroke-width="2" stroke-linecap="round" stroke-linejoin="round"/>
<path d="M1 4C1 2.34314 2.34315 1 4 1H23.6C25.2569 1 26.6 2.34315 26.6 4V17.2C26.6 18.8569 25.2569 20.2 23.6 20.2H12.6426C11.847 20.2 11.0839 20.5161 10.5213 21.0787L10.3213 21.2787C9.14975 22.4503 7.25025 22.4503 6.07868 21.2787L5.82843 21.0284C5.29799 20.498 4.57857 20.2 3.82843 20.2C2.26633 20.2 1 18.9337 1 17.3716V4Z" stroke="#C4C0C1" stroke-width="2" stroke-linecap="round" stroke-linejoin="round"/>
<path d="M12.9999 10.6H13.7999M18.5999 10.6H19.3999M7.3999 10.6H8.1999" stroke="#C4C0C1" stroke-width="2" stroke-linecap="round"/>
</svg>
