<svg width="39" height="33" viewBox="0 0 39 33" fill="none" xmlns="http://www.w3.org/2000/svg">
<path d="M0.0748242 12.568C0.389475 14.8108 0.843547 16.246 1.91857 18.3968H1.94142C1.96707 18.3968 1.85945 18.114 1.71882 17.8122C1.54413 17.4373 1.38841 17.0446 1.31492 16.7934C1.27457 16.6557 1.22166 16.5036 1.19741 16.4556C1.13622 16.3346 0.927586 15.6385 0.865191 15.3473C0.683081 14.4975 0.674798 14.4247 0.673529 13.6703C0.672193 12.8568 0.705595 12.59 0.901266 11.8499C1.0809 11.1707 1.33095 10.6483 1.75383 10.069C2.96259 8.41285 4.60652 7.52374 6.5949 7.45073C7.26916 7.42601 8.04463 7.51813 8.66478 7.69677C8.91229 7.76805 9.50578 8.00908 9.92832 8.20996C10.5036 8.4834 11.3471 9.03427 11.8677 9.47658C12.7551 10.2307 13.085 10.56 14.0774 11.6829C14.2479 11.8757 14.511 12.1689 14.662 12.3342C14.8131 12.4996 15.0759 12.7927 15.2461 12.9856C15.8513 13.6715 16.8763 14.6771 17.3287 15.0289C18.0134 15.5614 18.4999 15.8812 19.1876 16.251C19.9299 16.6502 21.5671 18.2919 22.377 18.4554C23.6222 16.5938 28.1995 20.2822 32.4323 19.6324L36.927 16.251L37.8595 13.1192L37.8949 12.7768C37.9144 12.5885 37.9518 12.239 37.978 12.0002C38.04 11.4368 38.0396 10.2246 37.9774 9.64533C37.8825 8.76244 37.7015 7.89605 37.4541 7.14015C36.661 4.71761 35.3515 2.90954 33.4837 1.65809C30.0086 -0.670327 25.3877 -0.531239 21.9934 2.00387C21.2918 2.52782 20.5656 3.22693 20.0702 3.85536C19.5396 4.52822 19.4459 4.63457 19.2962 4.73378C18.9432 4.96753 18.6748 4.82637 18.1248 4.11757C17.4203 3.20969 16.8067 2.59215 16.0375 2.01663C14.7014 1.01689 13.3459 0.441906 11.622 0.143489C9.72604 -0.184789 7.75697 0.0533023 5.97662 0.826033C4.60679 1.42066 3.47004 2.29133 2.4824 3.50257C1.19334 5.0835 0.383996 7.02384 0.0594584 9.31131C0.012027 9.6458 0.000203623 9.95804 3.20884e-06 10.8812C-0.000197205 11.8954 0.00882111 12.0977 0.0748242 12.568Z" fill="url(#paint0_radial_164_1869)"/>
<path d="M7.56354 25.4077C5.09738 23.1618 3.27501 20.9233 2.03959 18.6222L1.91854 18.3968H1.94139C1.96704 18.3968 1.85942 18.114 1.71879 17.8122C1.5441 17.4373 1.38838 17.0446 1.31489 16.7934C1.27454 16.6557 1.22163 16.5036 1.19738 16.4556C1.13619 16.3346 0.927557 15.6385 0.865162 15.3473C0.683052 14.4975 0.674769 14.4247 0.6735 13.6703C0.672163 12.8568 0.705566 12.59 0.901237 11.8499C1.08087 11.1708 1.33092 10.6483 1.7538 10.069C2.96256 8.41286 4.60649 7.52375 6.59487 7.45074C7.26913 7.42602 8.0446 7.51814 8.66475 7.69678C8.91226 7.76806 9.50575 8.00909 9.9283 8.20997C10.5036 8.4834 11.347 9.03428 11.8676 9.47659C12.7551 10.2307 13.085 10.56 14.0774 11.6829C14.2479 11.8757 14.511 12.1689 14.662 12.3342C14.8131 12.4996 15.0759 12.7927 15.2461 12.9856C15.8513 13.6715 16.8763 14.6771 17.3287 15.0289C18.0134 15.5614 18.4999 15.8812 19.1876 16.251C19.9299 16.6502 21.2118 17.1149 22.0217 17.2784C23.3649 17.8178 27.227 18.3085 30.1664 18.3085C33.1058 18.3085 35.8913 16.4217 37.1371 15.1843C37.056 15.3923 36.8922 15.7493 36.5568 16.3926L36.3146 16.8021C35.4186 18.3175 34.1923 19.6528 32.723 20.7133C30.8863 22.0391 28.509 22.9399 25.6175 23.406C25.3787 23.4444 25.0217 23.5055 24.4651 23.6075C24.3112 23.6075 24.0068 23.6512 23.6895 23.7046C23.3721 23.758 22.9771 23.8197 22.8117 23.8417C22.6464 23.8638 22.2631 23.9339 21.96 23.9974C21.2645 24.1431 21.3102 24.1319 21.0924 24.2098C20.9909 24.2461 20.8777 24.2812 20.841 24.2878C20.6593 24.3203 19.741 24.6638 19.2833 24.8707C18.9403 25.0256 18.4597 25.309 18.1002 25.5614C17.8351 25.7563 17.5841 25.9684 17.354 26.1933C16.6491 26.8904 16.2338 27.6305 16.0032 28.583C15.8396 29.5886 16.0147 30.5001 16.3928 31.2497C16.5403 31.5153 16.7254 31.7553 16.9638 31.9999L17.1273 32.1678C17.3914 32.3614 17.6783 32.4995 17.8819 32.5822L17.8209 32.5646C17.5976 32.5008 17.1781 32.2841 16.6525 31.9797C16.3675 31.8319 16.015 31.6323 15.6135 31.3912C14.6779 30.829 12.8727 29.6184 11.9534 28.9491C11.9243 28.9292 11.8957 28.9096 11.8676 28.8903L11.8111 28.8446L7.56354 25.4077Z" fill="url(#paint1_linear_164_1869)"/>
<path d="M36.2405 18.0627C37.1161 16.3035 37.4808 15.1901 37.8596 13.1192C37.9559 12.2827 37.815 13.1192 37.7928 13.1192L37.7618 13.2611C37.6753 13.6579 37.3901 14.536 37.1372 15.1843C37.056 15.3923 36.8922 15.7493 36.5569 16.3926L36.3147 16.8021C35.4187 18.3175 34.1924 19.6528 32.7231 20.7133C30.8864 22.0391 28.5091 22.94 25.6176 23.406C25.3788 23.4444 25.0218 23.5055 24.4652 23.6075C24.3113 23.6075 24.0069 23.6512 23.6895 23.7046C23.3722 23.758 22.9771 23.8197 22.8118 23.8417C22.6465 23.8638 22.2632 23.9339 21.96 23.9974C21.2646 24.1431 21.3103 24.1319 21.0924 24.2098C20.991 24.2461 20.8778 24.2812 20.8411 24.2878C20.6593 24.3203 19.741 24.6638 19.2834 24.8707C18.8383 25.0718 18.1614 25.4892 17.8181 25.7743C16.7735 26.6422 16.2257 27.5242 15.9626 28.7621C15.8865 29.1202 15.9 29.6736 15.9959 30.1226C16.1711 30.9428 16.4377 31.46 16.9638 31.9999L17.1835 32.2253L17.3831 32.3256C17.8181 32.5441 18.4772 32.6931 19.0079 32.6928C20.13 32.6923 21.1907 32.1941 23.9501 30.372C25.9969 29.0205 27.3023 28.0542 29.0914 26.5661C29.9025 25.8916 30.8248 25.0317 32.0141 23.8413L32.5088 23.3281C33.0721 22.7436 33.6416 22.0736 34.1734 21.3696C35.0796 20.1699 35.6293 19.2905 36.2405 18.0627Z" fill="url(#paint2_linear_164_1869)"/>
<defs>
<radialGradient id="paint0_radial_164_1869" cx="0" cy="0" r="1" gradientUnits="userSpaceOnUse" gradientTransform="translate(34.2816 15.663) rotate(-152.458) scale(30.8305 30.8305)">
<stop stop-color="#FFBE62"/>
<stop offset="0.543269" stop-color="#FF94BB"/>
</radialGradient>
<linearGradient id="paint1_linear_164_1869" x1="3.12382" y1="9.34328" x2="32.6649" y2="23.1585" gradientUnits="userSpaceOnUse">
<stop offset="0.370192" stop-color="#F86B79"/>
<stop offset="1" stop-color="#FFC261"/>
</linearGradient>
<linearGradient id="paint2_linear_164_1869" x1="26.9032" y1="12.7474" x2="26.9032" y2="32.6928" gradientUnits="userSpaceOnUse">
<stop offset="0.283654" stop-color="#59A7F0"/>
<stop offset="1" stop-color="#A7E2FF"/>
</linearGradient>
</defs>
</svg>
