<svg width="27" height="28" viewBox="0 0 27 28" fill="none" xmlns="http://www.w3.org/2000/svg">
<path d="M26.6028 8.04996C26.2472 7.30037 25.6705 6.67369 24.9478 6.25165L15.7313 0.631916C15.0542 0.218845 14.2735 0 13.477 0C12.6806 0 11.8999 0.218845 11.2228 0.631916L1.9777 6.25165C1.27795 6.6905 0.722796 7.32016 0.37978 8.06401C0.036648 8.81171 -0.0773971 9.64179 0.0516349 10.4524L2.43425 24.5017C2.60465 25.4746 3.11646 26.3577 3.88042 26.9971C4.64438 27.6364 5.612 27.9913 6.61453 28H20.3538C21.3669 27.9883 22.3466 27.642 23.1359 27.0165C23.8967 26.3693 24.4018 25.479 24.5626 24.5017L26.9452 10.4524C27.0815 9.63592 26.9621 8.79795 26.6028 8.04996ZM19.8545 16.4576C19.8545 16.472 19.8508 16.4862 19.8437 16.4988C18.5008 18.8999 16.4157 20.8175 13.8908 21.9728C13.7733 22.0383 13.6405 22.0722 13.5056 22.0712C13.3703 22.0751 13.2367 22.0409 13.1204 21.9728C10.5859 20.8185 8.49526 18.8928 7.15668 16.4796C6.66036 15.5226 6.4697 14.4401 6.60975 13.3744C6.7498 12.3087 7.21401 11.3097 7.94138 10.5086C8.37471 10.1364 8.89238 9.87198 9.45094 9.73753C10.0095 9.60308 10.5927 9.60251 11.1515 9.73588C11.6844 9.85185 12.1862 10.0663 12.632 10.3642C13.1435 10.7062 13.8677 10.7062 14.3792 10.3642C14.8249 10.0663 15.3267 9.85185 15.8597 9.73588C16.4185 9.60251 17.0016 9.60308 17.5602 9.73753C18.1188 9.87198 18.6364 10.1364 19.0698 10.5086C19.783 11.3087 20.2385 12.2997 20.3782 13.3554C20.517 14.4045 20.3379 15.4705 19.8635 16.4194C19.8576 16.4312 19.8545 16.4443 19.8545 16.4576Z" fill="#C4C0C1"/>
</svg>
