<svg width="27" height="30" viewBox="0 0 27 30" fill="none" xmlns="http://www.w3.org/2000/svg">
<path d="M13.0142 14.1765C14.7576 14.1765 16.4297 13.4824 17.6625 12.2468C18.8953 11.0113 19.5879 9.33554 19.5879 7.58823C19.5879 5.84093 18.8953 4.16518 17.6625 2.92965C16.4297 1.69411 14.7576 1 13.0142 1C11.2707 1 9.59863 1.69411 8.36581 2.92965C7.13299 4.16518 6.4404 5.84093 6.4404 7.58823C6.4404 9.33554 7.13299 11.0113 8.36581 12.2468C9.59863 13.4824 11.2707 14.1765 13.0142 14.1765ZM22.4036 29C24.4363 29 25.7673 27.0411 24.5828 25.3893C23.4439 23.8012 22.0286 22.3247 20.7499 21.39C18.5034 19.7479 15.7947 18.86 13.0142 18.86C10.2337 18.86 7.52495 19.7479 5.27846 21.39C3.99975 22.3247 2.58439 23.8012 1.44557 25.3893C0.260985 27.0411 1.59203 29 3.62473 29H22.4036Z" stroke="#C4C0C1" stroke-width="2" stroke-linecap="round" stroke-linejoin="round"/>
</svg>
